<svg width="24" height="22" viewBox="0 0 24 22" fill="none" xmlns="http://www.w3.org/2000/svg">
<path d="M0.75 10.75C0.75 6.03595 0.75 3.67894 2.03873 2.21446C3.32747 0.75 5.40164 0.75 9.55 0.75H13.95C18.0983 0.75 20.1726 0.75 21.4612 2.21446C22.75 3.67894 22.75 6.03595 22.75 10.75C22.75 15.464 22.75 17.8211 21.4612 19.2855C20.1726 20.75 18.0983 20.75 13.95 20.75H9.55C5.40164 20.75 3.32747 20.75 2.03873 19.2855C0.75 17.8211 0.75 15.464 0.75 10.75Z" stroke="#1C274C" stroke-width="1.5"/>
<path d="M9.55 16.375H5.15" stroke="#1C274C" stroke-width="1.5" stroke-linecap="round"/>
<path d="M7.35 12.625H5.15" stroke="#1C274C" stroke-width="1.5" stroke-linecap="round"/>
<path d="M0.75 8.25H22.75" stroke="#1C274C" stroke-width="1.5" stroke-linecap="round"/>
<path d="M13.95 14.5C13.95 13.3215 13.95 12.7323 14.2722 12.3661C14.5944 12 15.1129 12 16.15 12C17.1871 12 17.7056 12 18.0278 12.3661C18.35 12.7323 18.35 13.3215 18.35 14.5C18.35 15.6785 18.35 16.2677 18.0278 16.6339C17.7056 17 17.1871 17 16.15 17C15.1129 17 14.5944 17 14.2722 16.6339C13.95 16.2677 13.95 15.6785 13.95 14.5Z" stroke="#1C274C" stroke-width="1.5"/>
</svg>
