<svg width="22" height="22" viewBox="0 0 22 22" fill="none" xmlns="http://www.w3.org/2000/svg">
<path d="M0.75 10.9539C0.75 8.66549 0.75 7.52128 1.2692 6.57274C1.7884 5.62421 2.73695 5.03551 4.63403 3.85813L6.63403 2.61687C8.63939 1.37229 9.6421 0.75 10.75 0.75C11.8579 0.75 12.8606 1.37229 14.866 2.61687L16.866 3.85812C18.7631 5.03551 19.7116 5.62421 20.2308 6.57274C20.75 7.52128 20.75 8.66549 20.75 10.9539V12.475C20.75 16.3758 20.75 18.3263 19.5784 19.5381C18.4069 20.75 16.5212 20.75 12.75 20.75H8.75C4.97876 20.75 3.09315 20.75 1.92157 19.5381C0.75 18.3263 0.75 16.3758 0.75 12.475V10.9539Z" stroke="#1C274C" stroke-width="1.5"/>
<path d="M13.75 16.75H7.75" stroke="#1C274C" stroke-width="1.5" stroke-linecap="round"/>
</svg>
