<svg width="24" height="24" viewBox="0 0 24 24" fill="none" xmlns="http://www.w3.org/2000/svg">
<path d="M0.75 11.75C0.75 6.56455 0.75 3.97182 2.36092 2.36092C3.97182 0.75 6.56455 0.75 11.75 0.75C16.9354 0.75 19.5282 0.75 21.139 2.36092C22.75 3.97182 22.75 6.56455 22.75 11.75C22.75 16.9354 22.75 19.5282 21.139 21.139C19.5282 22.75 16.9354 22.75 11.75 22.75C6.56455 22.75 3.97182 22.75 2.36092 21.139C0.75 19.5282 0.75 16.9354 0.75 11.75Z" stroke="#1C274C" stroke-width="1.5"/>
<path d="M7.35001 11.75L9.55001 10.1L7.35001 8.45001" stroke="#1C274C" stroke-width="1.5" stroke-linecap="round" stroke-linejoin="round"/>
<path d="M16.15 11.75L13.95 10.1L16.15 8.45001" stroke="#1C274C" stroke-width="1.5" stroke-linecap="round" stroke-linejoin="round"/>
<path d="M16.15 16.15L14.6834 15.05L13.2166 16.15L11.75 15.05L10.2834 16.15L8.81667 15.05L7.35001 16.15" stroke="#1C274C" stroke-width="1.5" stroke-linecap="round" stroke-linejoin="round"/>
</svg>
