<svg width="25" height="24" viewBox="0 0 25 24" fill="none" xmlns="http://www.w3.org/2000/svg">
<path d="M5.41667 8.91666H10.0833" stroke="#1C274C" stroke-width="1.5" stroke-linecap="round" stroke-linejoin="round"/>
<path d="M22.7222 10.0833H19.6859C17.6043 10.0833 15.9167 11.6503 15.9167 13.5833C15.9167 15.5164 17.6043 17.0833 19.6859 17.0833H22.7222C22.8195 17.0833 22.868 17.0833 22.9091 17.0809C23.5383 17.0425 24.0394 16.5772 24.0807 15.993C24.0833 15.9548 24.0833 15.9097 24.0833 15.8195V11.3472C24.0833 11.257 24.0833 11.2119 24.0807 11.1737C24.0394 10.5894 23.5383 10.1242 22.9091 10.0858C22.868 10.0833 22.8195 10.0833 22.7222 10.0833Z" stroke="#1C274C" stroke-width="1.5"/>
<path d="M22.8758 10.0833C22.7852 7.89898 22.4927 6.55971 21.5498 5.61683C20.183 4.25 17.9831 4.25 13.5833 4.25H10.0833C5.68355 4.25 3.48367 4.25 2.11683 5.61683C0.75 6.98367 0.75 9.1836 0.75 13.5833C0.75 17.9831 0.75 20.183 2.11683 21.5498C3.48367 22.9167 5.68355 22.9167 10.0833 22.9167H13.5833C17.9831 22.9167 20.183 22.9167 21.5498 21.5498C22.4927 20.607 22.7852 19.2677 22.8758 17.0833" stroke="#1C274C" stroke-width="1.5"/>
<path d="M5.41667 4.25L9.77474 1.36032C11.002 0.54656 12.6647 0.54656 13.8919 1.36032L18.25 4.25" stroke="#1C274C" stroke-width="1.5" stroke-linecap="round"/>
<path d="M19.4064 13.5833H19.4169" stroke="#1C274C" stroke-width="2" stroke-linecap="round" stroke-linejoin="round"/>
</svg>
