<svg width="35" height="35" viewBox="0 0 35 35" fill="none" xmlns="http://www.w3.org/2000/svg">
<path d="M17.4166 17.4167C20.178 17.4167 22.4166 15.1781 22.4166 12.4167C22.4166 9.65524 20.178 7.41667 17.4166 7.41667C14.6552 7.41667 12.4166 9.65524 12.4166 12.4167C12.4166 15.1781 14.6552 17.4167 17.4166 17.4167Z" stroke="#1C274C" stroke-width="1.5"/>
<path d="M17.4167 34.0833C26.6214 34.0833 34.0833 26.6214 34.0833 17.4167C34.0833 8.21192 26.6214 0.75 17.4167 0.75C8.21192 0.75 0.75 8.21192 0.75 17.4167C0.75 26.6214 8.21192 34.0833 17.4167 34.0833Z" stroke="#1C274C" stroke-width="1.5"/>
<path d="M27.3651 30.75C27.1 25.9308 25.6245 22.4167 17.4165 22.4167C9.20865 22.4167 7.73315 25.9308 7.4679 30.75" stroke="#1C274C" stroke-width="1.5" stroke-linecap="round"/>
</svg>
