<svg width="23" height="24" viewBox="0 0 23 24" fill="none" xmlns="http://www.w3.org/2000/svg">
<path d="M11.121 15.05C12.9436 15.05 14.421 13.5726 14.421 11.75C14.421 9.92747 12.9436 8.45001 11.121 8.45001C9.29851 8.45001 7.82105 9.92747 7.82105 11.75C7.82105 13.5726 9.29851 15.05 11.121 15.05Z" stroke="#1C274C" stroke-width="1.5"/>
<path d="M13.063 0.917464C12.6586 0.75 12.1461 0.75 11.121 0.75C10.096 0.75 9.58347 0.75 9.17911 0.917464C8.64007 1.14075 8.21179 1.56904 7.9885 2.10809C7.88657 2.35417 7.84668 2.64035 7.83107 3.05779C7.80813 3.67125 7.49353 4.23908 6.96188 4.54602C6.43025 4.85296 5.78119 4.84149 5.23845 4.55464C4.86914 4.35943 4.60136 4.25088 4.33728 4.21612C3.75879 4.13996 3.17374 4.29672 2.71084 4.65192C2.36366 4.91832 2.10739 5.36219 1.59486 6.24992C1.08232 7.13767 0.826058 7.58153 0.768935 8.0154C0.692782 8.59388 0.849543 9.17893 1.20474 9.64185C1.36686 9.85316 1.59472 10.0307 1.94835 10.2529C2.46823 10.5796 2.80272 11.1361 2.80269 11.75C2.80266 12.3639 2.46817 12.9203 1.94834 13.2469C1.59466 13.4692 1.36677 13.6468 1.20463 13.8582C0.849433 14.321 0.692672 14.906 0.768836 15.4845C0.825948 15.9183 1.08221 16.3623 1.59475 17.25C2.10729 18.1377 2.36356 18.5817 2.71073 18.848C3.17363 19.2032 3.75868 19.3599 4.33717 19.2838C4.60122 19.249 4.869 19.1405 5.23829 18.9453C5.78106 18.6584 6.43016 18.647 6.96184 18.9539C7.49351 19.2609 7.80813 19.8287 7.83107 20.4423C7.84669 20.8597 7.88657 21.1459 7.9885 21.3919C8.21179 21.9309 8.64007 22.3593 9.17911 22.5826C9.58347 22.75 10.096 22.75 11.121 22.75C12.1461 22.75 12.6586 22.75 13.063 22.5826C13.602 22.3593 14.0303 21.9309 14.2535 21.3919C14.3555 21.1459 14.3954 20.8597 14.411 20.4422C14.4339 19.8287 14.7485 19.2609 15.2801 18.9539C15.8118 18.6469 16.4609 18.6584 17.0037 18.9453C17.373 19.1405 17.6407 19.2489 17.9047 19.2837C18.4832 19.3599 19.0683 19.2032 19.5312 18.848C19.8784 18.5816 20.1347 18.1377 20.6472 17.2499C21.1598 16.3622 21.4161 15.9183 21.4731 15.4845C21.5493 14.906 21.3925 14.3209 21.0373 13.858C20.8752 13.6467 20.6473 13.4691 20.2936 13.2469C19.7739 12.9203 19.4394 12.3638 19.4394 11.7499C19.4394 11.136 19.7739 10.5797 20.2936 10.2531C20.6474 10.0308 20.8753 9.85327 21.0374 9.64185C21.3926 9.179 21.5494 8.59396 21.4733 8.01547C21.4162 7.58161 21.1599 7.13773 20.6473 6.25C20.1348 5.36227 19.8785 4.91839 19.5313 4.652C19.0684 4.2968 18.4833 4.14004 17.9049 4.2162C17.6409 4.25096 17.3731 4.3595 17.0037 4.55468C16.461 4.84155 15.8119 4.85302 15.2803 4.54606C14.7485 4.2391 14.4339 3.67123 14.411 3.05773C14.3954 2.64033 14.3555 2.35416 14.2535 2.10809C14.0303 1.56904 13.602 1.14075 13.063 0.917464Z" stroke="#1C274C" stroke-width="1.5"/>
</svg>
