<svg width="22" height="22" viewBox="0 0 22 22" fill="none" xmlns="http://www.w3.org/2000/svg">
<path d="M7.75195 5.75C7.76406 3.57497 7.86051 2.39706 8.62889 1.62868C9.5076 0.75 10.9218 0.75 13.7502 0.75H14.7502C17.5786 0.75 18.9929 0.75 19.8715 1.62868C20.7502 2.50736 20.7502 3.92157 20.7502 6.75V14.75C20.7502 17.5784 20.7502 18.9926 19.8715 19.8713C18.9929 20.75 17.5786 20.75 14.7502 20.75H13.7502C10.9218 20.75 9.5076 20.75 8.62889 19.8713C7.86051 19.1029 7.76406 17.925 7.75195 15.75" stroke="#1C274C" stroke-width="1.5" stroke-linecap="round"/>
<path d="M13.75 10.75H0.75M0.75 10.75L4.25 7.75M0.75 10.75L4.25 13.75" stroke="#1C274C" stroke-width="1.5" stroke-linecap="round" stroke-linejoin="round"/>
</svg>
